REM DIRINDEX 1\2\6,1\2\7,1\2\8,1\2\9,1\3\10,1\3\11,1\4\12,1\4\13,1\4\14,1\5\15,1\5\16,1\5\17
REM DIRNAME cjc029,folder01,folder02,folder03,folder04,folder05,folder06,folder07,folder08,folder09,folder10,folder11,folder12,folder13,folder14,folder15,folder16
TITLE ""
FILE "1400_3_sec06_0550_0567.mp3" MP3
  TRACK 01 AUDIO
    TITLE "0:"
    INDEX 01 00:00:00
  TRACK 02 AUDIO
    TITLE "17:cjc029_5531"
    INDEX 01 00:00:15
  TRACK 03 AUDIO
    TITLE "0:"
    INDEX 01 00:01:24
  TRACK 04 AUDIO
    TITLE "16:cjc029_5532"
    INDEX 01 00:01:26
  TRACK 05 AUDIO
    TITLE "0:"
    INDEX 01 00:02:59
  TRACK 06 AUDIO
    TITLE "17:cjc029_5533"
    INDEX 01 00:03:43
  TRACK 07 AUDIO
    TITLE "0:"
    INDEX 01 00:04:56
  TRACK 08 AUDIO
    TITLE "16:cjc029_5534"
    INDEX 01 00:04:64
  TRACK 09 AUDIO
    TITLE "0:"
    INDEX 01 00:06:41
  TRACK 10 AUDIO
    TITLE "17:cjc029_5535"
    INDEX 01 00:07:25
  TRACK 11 AUDIO
    TITLE "0:"
    INDEX 01 00:08:50
  TRACK 12 AUDIO
    TITLE "16:cjc029_5536"
    INDEX 01 00:08:58
  TRACK 13 AUDIO
    TITLE "0:"
    INDEX 01 00:10:18
  TRACK 14 AUDIO
    TITLE "17:cjc029_5537"
    INDEX 01 00:11:03
  TRACK 15 AUDIO
    TITLE "0:"
    INDEX 01 00:12:03
  TRACK 16 AUDIO
    TITLE "16:cjc029_5538"
    INDEX 01 00:12:18
  TRACK 17 AUDIO
    TITLE "0:"
    INDEX 01 00:13:53
  TRACK 18 AUDIO
    TITLE "17:cjc029_5539"
    INDEX 01 00:14:41
  TRACK 19 AUDIO
    TITLE "0:"
    INDEX 01 00:15:56
  TRACK 20 AUDIO
    TITLE "16:cjc029_5540"
    INDEX 01 00:15:62
  TRACK 21 AUDIO
    TITLE "0:"
    INDEX 01 00:16:65
  TRACK 22 AUDIO
    TITLE "17:cjc029_5541"
    INDEX 01 00:17:49
  TRACK 23 AUDIO
    TITLE "0:"
    INDEX 01 00:18:50
  TRACK 24 AUDIO
    TITLE "16:cjc029_5542"
    INDEX 01 00:18:56
  TRACK 25 AUDIO
    TITLE "0:"
    INDEX 01 00:19:56
  TRACK 26 AUDIO
    TITLE "17:cjc029_5543"
    INDEX 01 00:20:37
  TRACK 27 AUDIO
    TITLE "0:"
    INDEX 01 00:21:57
  TRACK 28 AUDIO
    TITLE "16:cjc029_5544"
    INDEX 01 00:21:62
  TRACK 29 AUDIO
    TITLE "0:"
    INDEX 01 00:23:38
  TRACK 30 AUDIO
    TITLE "17:cjc029_5545"
    INDEX 01 00:24:25
  TRACK 31 AUDIO
    TITLE "0:"
    INDEX 01 00:26:56
  TRACK 32 AUDIO
    TITLE "16:cjc029_5546"
    INDEX 01 00:26:62
  TRACK 33 AUDIO
    TITLE "0:"
    INDEX 01 00:28:02
  TRACK 34 AUDIO
    TITLE "17:cjc029_5547"
    INDEX 01 00:28:62
  TRACK 35 AUDIO
    TITLE "0:"
    INDEX 01 00:32:00
  TRACK 36 AUDIO
    TITLE "16:cjc029_5548"
    INDEX 01 00:32:03
  TRACK 37 AUDIO
    TITLE "0:"
    INDEX 01 00:33:30
  TRACK 38 AUDIO
    TITLE "17:cjc029_5549"
    INDEX 01 00:34:16
  TRACK 39 AUDIO
    TITLE "0:"
    INDEX 01 00:35:41
  TRACK 40 AUDIO
    TITLE "16:cjc029_5550"
    INDEX 01 00:35:49
  TRACK 41 AUDIO
    TITLE "0:"
    INDEX 01 00:36:66
  TRACK 42 AUDIO
    TITLE "17:cjc029_5551"
    INDEX 01 00:37:50
  TRACK 43 AUDIO
    TITLE "0:"
    INDEX 01 00:38:51
  TRACK 44 AUDIO
    TITLE "16:cjc029_5552"
    INDEX 01 00:38:55
  TRACK 45 AUDIO
    TITLE "0:"
    INDEX 01 00:40:05
  TRACK 46 AUDIO
    TITLE "17:cjc029_5553"
    INDEX 01 00:40:66
  TRACK 47 AUDIO
    TITLE "0:"
    INDEX 01 00:43:42
  TRACK 48 AUDIO
    TITLE "16:cjc029_5554"
    INDEX 01 00:43:48
  TRACK 49 AUDIO
    TITLE "0:"
    INDEX 01 00:44:54
  TRACK 50 AUDIO
    TITLE "17:cjc029_5555"
    INDEX 01 00:45:43
  TRACK 51 AUDIO
    TITLE "0:"
    INDEX 01 00:46:56
  TRACK 52 AUDIO
    TITLE "16:cjc029_5556"
    INDEX 01 00:46:58
  TRACK 53 AUDIO
    TITLE "0:"
    INDEX 01 00:47:62
  TRACK 54 AUDIO
    TITLE "17:cjc029_5557"
    INDEX 01 00:48:44
  TRACK 55 AUDIO
    TITLE "0:"
    INDEX 01 00:49:53
  TRACK 56 AUDIO
    TITLE "16:cjc029_5558"
    INDEX 01 00:49:65
  TRACK 57 AUDIO
    TITLE "0:"
    INDEX 01 00:51:30
  TRACK 58 AUDIO
    TITLE "17:cjc029_5559"
    INDEX 01 00:52:14
  TRACK 59 AUDIO
    TITLE "0:"
    INDEX 01 00:55:03
  TRACK 60 AUDIO
    TITLE "16:cjc029_5560"
    INDEX 01 00:55:10
  TRACK 61 AUDIO
    TITLE "0:"
    INDEX 01 00:56:53
  TRACK 62 AUDIO
    TITLE "17:cjc029_5561"
    INDEX 01 00:57:39
  TRACK 63 AUDIO
    TITLE "0:"
    INDEX 01 00:58:54
  TRACK 64 AUDIO
    TITLE "16:cjc029_5562"
    INDEX 01 00:58:58
  TRACK 65 AUDIO
    TITLE "0:"
    INDEX 01 01:00:15
  TRACK 66 AUDIO
    TITLE "17:cjc029_5563"
    INDEX 01 01:00:72
  TRACK 67 AUDIO
    TITLE "0:"
    INDEX 01 01:03:59
  TRACK 68 AUDIO
    TITLE "16:cjc029_5564"
    INDEX 01 01:03:67
  TRACK 69 AUDIO
    TITLE "0:"
    INDEX 01 01:05:21
  TRACK 70 AUDIO
    TITLE "17:cjc029_5565"
    INDEX 01 01:06:06
  TRACK 71 AUDIO
    TITLE "0:"
    INDEX 01 01:07:12
  TRACK 72 AUDIO
    TITLE "16:cjc029_5566"
    INDEX 01 01:07:19
  TRACK 73 AUDIO
    TITLE "0:"
    INDEX 01 01:08:35
